# xmcd CD database file
#
# Track frame offsets:
#	150
#	23014
#	51958
#	87324
#
# Disc length: 4440 seconds
#
# Revision: 0
# Processed by: cddbd v1.5.1PL0 Copyright (c) Steve Scherf et al.
# Submitted via: CDex 1.51
#
DISCID=28115604
DTITLE=安藤裕子 - 水色の調べ
DYEAR=2004
DGENRE=JPop
TTITLE0=水色の調べ
TTITLE1=春咲小紅
TTITLE2=yuyake
TTITLE3=Not MUSIC(Fuck CCCD!)
EXTD=YEAR: 2004/06/23
EXTT0=
EXTT1=
EXTT2=
EXTT3=
PLAYORDER=
